<mxfile host="app.diagrams.net" modified="2023-06-05T09:28:23.130Z" agent="Mozilla/5.0 (Macintosh; Intel Mac OS X 10_15_7) AppleWebKit/537.36 (KHTML, like Gecko) Chrome/113.0.0.0 Safari/537.36" version="21.3.7" etag="q-jOogbx7Woiw1vOoUvP" type="github">
  <diagram name="หน้า-1" id="mhAFJBa3jZP5CWEdkk3J">
    <mxGraphModel>
      <root>
        <mxCell id="0" />
        <mxCell id="1" parent="0" />
      </root>
    </mxGraphModel>
  </diagram>
</mxfile>
